# xmcd
# Track frame offsets:
# 150
# 17823
# 40357
# 57602
# 86184
# 103401
# 120920
# 133024
# 158704
# 173120
# 186476
# 201566
# 219718
# 245611
# 282194
#
# Disc length: 4013 seconds
# Revision: 0
# Processed by: cddbd v1.5.1PL0 Copyright (c) Steve Scherf et al.
# Submitted via: VisiTrax 2.9.9.202 - For more info visit www.synapsa.com
#
DISCID=eb0fab0f
DTITLE=Bob Campbell - The Golden West
DYEAR=2004
DGENRE=Cowboy
TTITLE0=Goin' Dancin'
TTITLE1=Big Cowboy Moon
TTITLE2=Roll On, Cowboys
TTITLE3=The Texan
TTITLE4=Cathedral
TTITLE5=This Cowboy Life
TTITLE6=Arbuckle Coffee
TTITLE7=Dance At Domingo
TTITLE8=Old Cowboy Waltz
TTITLE9=Davy's Lament
TTITLE10=Old Borunda Cafe
TTITLE11=Pilgrim's Progress
TTITLE12=Crazy Horse
TTITLE13=The Golden West
TTITLE14=Roll On, Cowboy's (Sorta Live)
EXTD=Buffalo Creek Production
EXTT0=
EXTT1=
EXTT2=
EXTT3=
EXTT4=
EXTT5=
EXTT6=
EXTT7=
EXTT8=
EXTT9=
EXTT10=
EXTT11=
EXTT12=
EXTT13=
EXTT14=
PLAYORDER=
